<?xml version="1.0" ?><!DOCTYPE svg  PUBLIC '-//W3C//DTD SVG 1.1//EN'  'http://www.w3.org/Graphics/SVG/1.1/DTD/svg11.dtd'><svg height="512px" style="shape-rendering:geometricPrecision; text-rendering:geometricPrecision; image-rendering:optimizeQuality; fill-rule:evenodd; clip-rule:evenodd" version="1.1" viewBox="0 0 512 512" width="512px" xml:space="preserve" xmlns="http://www.w3.org/2000/svg" xmlns:xlink="http://www.w3.org/1999/xlink"><defs><style type="text/css">
   <![CDATA[
    .fil1 {fill:#FEFEFE}
    .fil0 {fill:#BE663A}
   ]]>
  </style></defs><g id="Layer_x0020_1"><g id="_307562583808"><path class="fil0" d="M31 212c13,-2 19,-5 19,-5 137,-117 211,-180 211,-180 104,75 156,113 156,113 8,-2 12,-3 12,-3 -113,-82 -169,-123 -169,-123 -149,128 -229,198 -229,198z"/><path class="fil0" d="M262 0c12,0 22,10 22,22 0,12 -10,22 -22,22 -12,0 -22,-10 -22,-22 0,-12 10,-22 22,-22zm0 11c6,0 11,5 11,11 0,6 -5,11 -11,11 -6,0 -11,-5 -11,-11 0,-6 5,-11 11,-11z"/><circle class="fil1" cx="262" cy="22" r="11"/><rect class="fil0" height="18.125" rx="1" ry="1" transform="matrix(15.6685 -3.17591 2.95516 16.839 15.738 210.761)" width="27.2503"/><circle class="fil1" cx="420" cy="154" r="11"/><circle class="fil1" cx="48" cy="231" r="11"/><circle class="fil1" cx="98" cy="480" r="11"/><circle class="fil1" cx="468" cy="404" r="11"/><path class="fil1" d="M304 224l-124 23c-17,3 -28,20 -25,37l23 123c3,17 19,28 36,25l124 -22c17,-3 28,-20 25,-37l-23 -123c-3,-17 -19,-29 -36,-26zm-81 99l67 -12c2,3 3,7 4,11 4,19 -9,38 -29,42 -19,3 -38,-10 -41,-29 -1,-4 -1,-8 -1,-12zm103 -19l9 46 4 24c1,6 -3,12 -10,13l-115 21c-7,2 -13,-3 -14,-9l-4 -23 -9 -46 0 0 18 -4c0,4 0,8 1,12 5,29 33,48 62,43 29,-5 49,-33 43,-62 0,-4 -1,-8 -3,-12l18 -3 0 0zm-7 -40c0,3 -2,6 -5,6l-12 3c-3,0 -6,-2 -7,-5l-2 -12c0,-3 2,-6 5,-7l12 -2c3,0 6,2 7,5l2 12z"/></g></g></svg>