<?xml version="1.0" ?><!DOCTYPE svg  PUBLIC '-//W3C//DTD SVG 1.1//EN'  'http://www.w3.org/Graphics/SVG/1.1/DTD/svg11.dtd'><svg height="512px" style="shape-rendering:geometricPrecision; text-rendering:geometricPrecision; image-rendering:optimizeQuality; fill-rule:evenodd; clip-rule:evenodd" version="1.1" viewBox="0 0 512 512" width="512px" xml:space="preserve" xmlns="http://www.w3.org/2000/svg" xmlns:xlink="http://www.w3.org/1999/xlink"><defs><style type="text/css">
   <![CDATA[
    .fil1 {fill:#FEFEFE}
    .fil0 {fill:#0D6A97}
   ]]>
  </style></defs><g id="Layer_x0020_1"><g id="_309023201488"><g><path class="fil0" d="M31 212c13,-2 19,-5 19,-5 137,-117 211,-180 211,-180 104,75 156,113 156,113 8,-2 12,-3 12,-3 -113,-82 -169,-123 -169,-123 -149,128 -229,198 -229,198z"/><path class="fil0" d="M262 0c12,0 22,10 22,22 0,12 -10,22 -22,22 -12,0 -22,-10 -22,-22 0,-12 10,-22 22,-22zm0 11c6,0 11,5 11,11 0,6 -5,11 -11,11 -6,0 -11,-5 -11,-11 0,-6 5,-11 11,-11z"/><circle class="fil1" cx="262" cy="22" r="11"/><rect class="fil0" height="18.125" rx="1" ry="1" transform="matrix(15.6685 -3.17591 2.95516 16.839 15.738 210.761)" width="27.2503"/><circle class="fil1" cx="420" cy="154" r="11"/><circle class="fil1" cx="48" cy="231" r="11"/><circle class="fil1" cx="98" cy="480" r="11"/><circle class="fil1" cx="468" cy="404" r="11"/></g><g><g><path class="fil1" d="M180 442l38 -8 -30 -152 -38 7 30 153zm122 -183c-32,7 -44,34 -46,36l-5 -26 -38 8 30 152 38 -7 -17 -89c-1,-3 2,-31 33,-33 16,-2 29,17 30,20l18 89 38 -7 -21 -106c-4,-15 -18,-44 -60,-37zm-143 -24c-11,2 -17,12 -15,22 2,11 12,18 22,16 11,-2 18,-12 16,-23 -2,-11 -13,-17 -23,-15z"/></g></g></g></g></svg>