<?xml version="1.0" ?><!DOCTYPE svg  PUBLIC '-//W3C//DTD SVG 1.1//EN'  'http://www.w3.org/Graphics/SVG/1.1/DTD/svg11.dtd'><svg height="512px" style="shape-rendering:geometricPrecision; text-rendering:geometricPrecision; image-rendering:optimizeQuality; fill-rule:evenodd; clip-rule:evenodd" version="1.1" viewBox="0 0 512 512" width="512px" xml:space="preserve" xmlns="http://www.w3.org/2000/svg" xmlns:xlink="http://www.w3.org/1999/xlink"><defs><style type="text/css">
   <![CDATA[
    .fil1 {fill:#FEFEFE}
    .fil0 {fill:#983133}
   ]]>
  </style></defs><g id="Layer_x0020_1"><g id="_307559154304"><path class="fil0" d="M31 212c13,-2 19,-5 19,-5 137,-117 211,-180 211,-180 104,75 156,113 156,113 8,-2 12,-3 12,-3 -113,-82 -169,-123 -169,-123 -149,128 -229,198 -229,198z"/><path class="fil0" d="M262 0c12,0 22,10 22,22 0,12 -10,22 -22,22 -12,0 -22,-10 -22,-22 0,-12 10,-22 22,-22zm0 11c6,0 11,5 11,11 0,6 -5,11 -11,11 -6,0 -11,-5 -11,-11 0,-6 5,-11 11,-11z"/><circle class="fil1" cx="262" cy="22" r="11"/><rect class="fil0" height="18.125" rx="1" ry="1" transform="matrix(15.6685 -3.17591 2.95516 16.839 15.738 210.761)" width="27.2503"/><circle class="fil1" cx="420" cy="154" r="11"/><circle class="fil1" cx="48" cy="231" r="11"/><circle class="fil1" cx="98" cy="480" r="11"/><circle class="fil1" cx="468" cy="404" r="11"/><path class="fil1" d="M202 225l-1 33 -1 1 -15 -30 -13 2 27 49 5 22 9 -2 -5 -23 8 -54 -14 2zm49 26c-1,-4 -3,-8 -6,-10 -4,-3 -5,-4 -10,-3 -5,1 -7,3 -9,6 -3,4 -3,8 -2,12l4 25c1,5 4,8 7,11 4,2 6,3 11,2 5,-1 6,-3 8,-6 3,-3 3,-8 2,-13l-5 -24 0 0zm34 -23l-9 2 7 37c0,1 -4,9 -5,9 -1,0 -1,0 -2,-1 0,0 -1,-1 -1,-2l-8 -42 -10 2 9 46c1,3 2,8 5,10 1,1 5,0 8,-4 3,-2 4,-6 6,-11l2 10 9 -2 -11 -54zm79 101c-4,-21 -25,-35 -45,-31l-130 26c-20,4 -34,25 -29,46l7 35c4,21 24,35 45,31l129 -26c21,-4 34,-25 30,-46l-7 -35zm-41 65c-4,1 -7,0 -10,-2 -3,-2 -5,-6 -6,-10l-5 -22c-1,-4 -1,-13 1,-16 3,-3 6,-5 10,-6 4,-1 8,0 11,2 2,2 5,10 6,14l2 9 -18 4 2 12c1,3 2,5 2,6 1,0 2,1 4,0 1,0 2,-1 3,-2 0,-1 0,-2 0,-5l-1 -3 10 -1 1 2c1,5 0,9 -2,12 -2,3 -5,5 -10,6zm-2 -36l-1 -2c0,-2 -2,-8 -2,-8 -1,-1 -2,-1 -4,-1 -1,0 -2,1 -3,2 0,1 1,7 1,9l0 1 9 -1zm-29 42c-2,1 -4,1 -6,0 -1,0 -3,-1 -5,-2l1 4 -10 2 -14 -74 9 -2 4 22c1,-1 3,-3 4,-4 2,-1 3,-2 5,-2 3,-1 5,0 7,2 2,1 4,4 5,9l6 33c1,3 1,6 0,8 -1,2 -3,4 -6,4zm-9 -43c-1,-2 -2,-3 -3,-4 -1,0 -2,0 -3,0 -1,0 -2,0 -2,1 -1,0 -2,1 -3,2l8 36c1,1 2,1 3,1 1,1 2,1 2,0 2,0 2,0 3,-1 0,-1 1,-2 1,-4l-6 -31 0 0zm-31 44c-1,3 -3,5 -4,7 -2,1 -4,2 -6,2 -2,1 -4,1 -5,-1 -2,-1 -3,-3 -3,-6l-10 -47 10 -2 8 44c0,1 1,2 1,2 1,0 2,1 3,0 0,0 2,0 3,-1 1,-1 2,-2 3,-4l-9 -43 9 -1 11 55 -9 2 -2 -7 0 0zm-26 13l-9 1 -13 -65 -9 2 -2 -9 28 -6 2 10 -10 2 13 65zm18 -130c-2,0 -3,0 -4,-1 -1,0 -2,-1 -2,-3l-5 -26c-1,-1 0,-2 0,-3 1,-1 2,-2 3,-2 2,0 3,0 4,0 1,1 2,2 2,3l5 26c0,2 0,3 0,4 -1,1 -2,2 -3,2z"/></g></g></svg>